<?xml version="1.0" encoding="UTF-8"?>
<svg width="752pt" height="752pt" version="1.1" viewBox="0 0 752 752" xmlns="http://www.w3.org/2000/svg">
 <defs>
  <clipPath id="a">
   <path d="m139.21 139.21h473.58v473.58h-473.58z"/>
  </clipPath>
 </defs>
 <g clip-path="url(#a)">
  <path d="m346.4 450c3.7305-0.011719 7.3242 1.3828 10.066 3.9062 2.7461 2.5234 4.4336 5.9922 4.7344 9.707v135.56c-0.30078 3.7188-1.9883 7.1836-4.7344 9.707-2.7422 2.5234-6.3359 3.9219-10.066 3.9102h-192.39c-3.7305 0.011719-7.3242-1.3867-10.07-3.9102-2.7422-2.5234-4.4336-5.9883-4.7305-9.707v-135.56c0.29687-3.7148 1.9883-7.1836 4.7305-9.707 2.7461-2.5234 6.3398-3.918 10.07-3.9062zm251.59-118.39v-0.003907c3.9258 0 7.6914 1.5625 10.465 4.3359 2.7773 2.7773 4.3359 6.5391 4.3359 10.465v251.59c0 3.9258-1.5586 7.6914-4.3359 10.465-2.7734 2.7773-6.5391 4.3359-10.465 4.3359h-192.39c-3.9258 0-7.6914-1.5586-10.465-4.3359-2.7773-2.7734-4.3359-6.5391-4.3359-10.465v-251.59c0-3.9258 1.5586-7.6875 4.3359-10.465 2.7734-2.7734 6.5391-4.3359 10.465-4.3359h192.39zm-266.39 145.48h-162.79v108.63l162.79-0.003907zm251.59-115.88h-162.79v221.99h162.79zm-236.79-221.99c3.9258 0 7.6914 1.5586 10.465 4.3359 2.7773 2.7734 4.3359 6.5391 4.3359 10.465v251.59c0 3.9219-1.5586 7.6875-4.3359 10.465-2.7734 2.7734-6.5391 4.332-10.465 4.332h-192.39c-3.9258 0-7.6914-1.5586-10.465-4.332-2.7773-2.7773-4.3359-6.543-4.3359-10.465v-251.59c0-3.9258 1.5586-7.6914 4.3359-10.465 2.7734-2.7773 6.5391-4.3359 10.465-4.3359zm-14.801 29.598h-162.79v221.99h162.79zm266.39-29.598c3.7305-0.011719 7.3242 1.3828 10.066 3.9062 2.7461 2.5273 4.4336 5.9922 4.7344 9.7109v135.56c-0.30078 3.7148-1.9883 7.1797-4.7344 9.707-2.7422 2.5234-6.3359 3.918-10.066 3.9062h-192.39c-3.7305 0.011719-7.3242-1.3828-10.07-3.9062-2.7422-2.5273-4.4336-5.9922-4.7305-9.707v-135.56c0.29688-3.7188 1.9883-7.1836 4.7305-9.7109 2.7461-2.5234 6.3398-3.918 10.07-3.9062zm-14.801 27.082h-162.79v108.63h162.79z"/>
 </g>
</svg>
