<?xml version="1.0" encoding="UTF-8"?>
<svg width="752pt" height="752pt" version="1.1" viewBox="0 0 752 752" xmlns="http://www.w3.org/2000/svg">
 <path d="m375.11 177.1c-3.2383 0.31641-6.0898 2.2695-7.5469 5.1797l-59.496 118.84-132.6 22.938c-3.4922 0.63672-6.3398 3.1758-7.3672 6.5742-1.0273 3.3984-0.070312 7.0898 2.4844 9.5586l95.75 91.164-22.789 132.45c-0.60938 3.5312 0.82422 7.1016 3.7031 9.2344 2.8828 2.1289 6.7148 2.4492 9.9141 0.83203l118.84-59.348 80.953 40.402c2.25 1.2617 4.918 1.5547 7.3867 0.80469 2.4688-0.74609 4.5234-2.4688 5.6914-4.7695 1.1719-2.2969 1.3516-4.9766 0.50391-7.4102-0.84766-2.4375-2.6523-4.4219-4.9961-5.4961l-85.246-42.621c-2.6953-1.3711-5.8867-1.3711-8.582 0l-106.26 53.129 20.422-118.84c0.52344-3.1055-0.52734-6.2656-2.8086-8.4336l-85.84-81.844 118.84-20.422c2.9336-0.51172 5.457-2.3789 6.8086-5.0312l53.129-106.26 53.133 106.26c1.3516 2.6523 3.8711 4.5195 6.8047 5.0312l118.84 20.422-36.109 34.484c-2.125 1.6406-3.4492 4.1094-3.6523 6.7852-0.19922 2.6797 0.74609 5.3164 2.6016 7.2539 1.8555 1.9414 4.4492 3.0039 7.1328 2.9219s5.207-1.2969 6.9414-3.3438l49.727-47.359c2.5547-2.4688 3.5117-6.1602 2.4844-9.5586-1.0312-3.3984-3.875-5.9375-7.3672-6.5742l-132.61-22.938-59.492-118.84c-1.75-3.4805-5.4453-5.5352-9.3242-5.1797zm122.98 227.17c-4.8828 0.53516-8.543 4.7109-8.4375 9.6172v66.301h-66.301c-0.29688-0.011719-0.59375-0.011719-0.88672 0-2.5117 0.11719-4.875 1.2305-6.5703 3.0898-1.6914 1.8594-2.5781 4.3164-2.4609 6.8281 0.11719 2.5117 1.2305 4.875 3.0898 6.5664 1.8594 1.6953 4.3164 2.5781 6.8281 2.4609h66.301v66.301c-0.035156 2.5352 0.94531 4.9805 2.7266 6.7852s4.2109 2.8203 6.7461 2.8203c2.5352 0 4.9648-1.0156 6.7461-2.8203 1.7773-1.8047 2.7617-4.25 2.7266-6.7852v-66.301h66.301c2.5352 0.035157 4.9766-0.94531 6.7852-2.7266 1.8047-1.7812 2.8203-4.2109 2.8203-6.7461s-1.0156-4.9648-2.8203-6.7461c-1.8086-1.7773-4.25-2.7617-6.7852-2.7266h-66.301v-66.301c0.058593-2.7266-1.0625-5.3477-3.0742-7.1914-2.0117-1.8398-4.7227-2.7266-7.4336-2.4258z"/>
</svg>
