<?xml version="1.0" encoding="UTF-8"?>
<svg width="752pt" height="752pt" version="1.1" viewBox="0 0 752 752" xmlns="http://www.w3.org/2000/svg">
 <g>
  <path d="m376 206.25c-93.582 0.046875-169.7 76.164-169.7 169.75s76.117 169.7 169.7 169.7 169.7-76.168 169.7-169.7c0.003906-93.582-76.117-169.7-169.7-169.75zm0 319.77c-82.68 0-149.97-67.289-149.97-149.97 0-82.68 67.289-149.97 149.97-150.02 82.68 0 149.97 67.285 149.97 149.96s-67.289 149.97-149.97 150.02z"/>
  <path d="m385.87 259.33h-19.734v110.95c0 7.0547 3.75 13.566 9.8672 17.07l96.098 55.496 9.8672-17.07-96.098-55.496z"/>
 </g>
</svg>
