<?xml version="1.0" encoding="UTF-8"?>
<svg width="752pt" height="752pt" version="1.1" viewBox="0 0 752 752" xmlns="http://www.w3.org/2000/svg">
 <g>
  <path d="m584.51 267.85h-91.078v-97.254c0-2.4531-0.97266-4.8047-2.707-6.543-1.7344-1.7344-4.0898-2.707-6.543-2.707h-216.36c-5.1094 0-9.25 4.1406-9.25 9.25v97.254h-91.09c-5.1094 0-9.25 4.1406-9.25 9.25v293.14c0 2.4531 0.97656 4.8086 2.7109 6.543 1.7344 1.7344 4.0859 2.707 6.5391 2.707h417.03c2.4531 0.003906 4.8047-0.96875 6.543-2.707 1.7344-1.7344 2.707-4.0859 2.707-6.543v-293.14c0-2.4531-0.97656-4.8047-2.7109-6.543-1.7344-1.7344-4.0859-2.707-6.5391-2.707zm-280.9 141.61-126.88 137.16v-249.05zm13.883 12.238 52.391 46.188v0.003906c3.4961 3.0898 8.7422 3.0898 12.238 0l52.391-46.188 128.84 139.29h-374.71zm130.9-12.238 126.87-111.89v249.05zm-171.32-229.62h197.86v132.34h-67.113c-3.2578 0.003906-6.2734 1.7148-7.9414 4.5117l-23.879 40.062-23.902-40.062h0.003906c-1.668-2.7969-4.6836-4.5117-7.9414-4.5117h-67.086zm-9.25 150.84h71.082l29.148 48.875c1.6719 2.793 4.6875 4.5039 7.9414 4.5039 3.2578 0 6.2734-1.7109 7.9453-4.5039l29.156-48.84h71.086c2.4531 0 4.8086-0.97266 6.543-2.7109 1.7344-1.7344 2.707-4.0859 2.707-6.5391v-35.125h66.598l-184.03 162.27-184.04-162.27h66.598v35.09c-0.003906 2.4531 0.97266 4.8125 2.7109 6.5469 1.7383 1.7344 4.0938 2.707 6.5508 2.7031z"/>
  <path d="m322.35 230.97c-3.9883-0.003906-7.8125 1.5781-10.633 4.3945-2.8203 2.8203-4.4023 6.6406-4.4062 10.629 0 3.9844 1.582 7.8086 4.4023 10.629 2.8164 2.8203 6.6406 4.4023 10.625 4.4023 3.9883 0.003906 7.8086-1.582 10.629-4.3984 2.8203-2.8203 4.4023-6.6445 4.4023-10.629 0.003906-3.9844-1.5781-7.8086-4.3984-10.625-2.8164-2.8203-6.6367-4.4023-10.621-4.4023z"/>
  <path d="m376 261.04c3.9883 0.003907 7.8125-1.5781 10.633-4.3984 2.8203-2.8164 4.4023-6.6406 4.4062-10.629 0-3.9844-1.5859-7.8086-4.4023-10.629-2.8203-2.8164-6.6445-4.4023-10.629-4.4023-3.9883 0.003906-7.8125 1.5859-10.629 4.4062-2.8203 2.8203-4.4023 6.6445-4.3984 10.633 0 3.9844 1.582 7.8047 4.3984 10.621s6.6367 4.3984 10.621 4.3984z"/>
  <path d="m445.55 246.02c0 8.293-6.7266 15.02-15.02 15.02-8.2969 0-15.023-6.7266-15.023-15.02 0-8.2969 6.7266-15.023 15.023-15.023 8.293 0 15.02 6.7266 15.02 15.023"/>
 </g>
</svg>
