<?xml version="1.0" encoding="UTF-8"?>
<svg width="752pt" height="752pt" version="1.1" viewBox="0 0 752 752" xmlns="http://www.w3.org/2000/svg">
 <g fill-rule="evenodd">
  <path d="m420.4 334.13v-17.324c0-24.523-19.875-44.398-44.398-44.398-24.52 0-44.398 19.875-44.398 44.398v17.324c-17.242 6.0938-29.598 22.543-29.598 41.871v29.602c0 24.52 19.879 44.398 44.398 44.398h59.199c24.52 0 44.398-19.879 44.398-44.398v-29.602c0-19.328-12.355-35.777-29.602-41.871zm-59.195-2.5273h29.598v-14.797c0-8.1758-6.625-14.801-14.801-14.801-8.1719 0-14.797 6.625-14.797 14.801zm-14.801 29.602c-8.1719 0-14.801 6.625-14.801 14.797v29.602c0 8.1719 6.6289 14.797 14.801 14.797h59.199c8.1719 0 14.797-6.625 14.797-14.797v-29.602c0-8.1719-6.625-14.797-14.797-14.797z"/>
  <path d="m372.11 169.33c2.5469-0.69531 5.2383-0.69531 7.7852 0l162.79 44.398c6.4414 1.7539 10.906 7.6016 10.906 14.277v181.3c0 48.742-26.625 93.594-69.414 116.93l-101.09 55.141c-4.418 2.4102-9.7578 2.4102-14.176 0l-101.09-55.141c-42.793-23.34-69.414-68.191-69.414-116.93v-181.3c0-6.6758 4.4648-12.523 10.902-14.277zm-144.1 69.98v170c0 37.91 20.707 72.793 53.988 90.949l94.004 51.273 94.008-51.273c33.281-18.156 53.988-53.039 53.988-90.949v-170l-148-40.363z"/>
 </g>
</svg>
