<?xml version="1.0" encoding="UTF-8"?>
<svg width="752pt" height="752pt" version="1.1" viewBox="0 0 752 752" xmlns="http://www.w3.org/2000/svg">
 <path d="m405.16 204.46c-26.613-26.617-62.715-41.57-100.36-41.57s-73.738 14.953-100.35 41.57c-26.617 26.613-41.57 62.715-41.57 100.36s14.953 73.738 41.57 100.35c26.613 26.617 62.711 41.57 100.35 41.57s73.742-14.953 100.36-41.57c26.617-26.613 41.57-62.711 41.57-100.35s-14.953-73.742-41.57-100.36zm-28.016 172.69c-19.184 19.184-45.203 29.961-72.332 29.961-27.133 0-53.148-10.777-72.332-29.961-19.184-19.184-29.961-45.203-29.961-72.332 0-27.133 10.777-53.148 29.961-72.332s45.199-29.961 72.332-29.961c27.129 0 53.148 10.777 72.332 29.961 19.184 19.184 29.961 45.199 29.961 72.332 0 27.129-10.777 53.148-29.961 72.332zm200.06 200.05c-7.9414 7.9375-18.812 12.238-30.035 11.887-11.223-0.35547-21.801-5.332-29.23-13.754l-128.79-146.14c15.73-10.727 29.309-24.312 40.02-40.051l146.16 128.81c8.418 7.4258 13.395 17.996 13.75 29.215s-3.9414 22.086-11.875 30.027z"/>
</svg>
