<?xml version="1.0" encoding="UTF-8"?>
<svg width="752pt" height="752pt" version="1.1" viewBox="0 0 752 752" xmlns="http://www.w3.org/2000/svg">
 <path d="m511.25 358.58v-5.1797c0-48.316-25.777-92.965-67.621-117.12-41.848-24.16-93.402-24.16-135.25 0s-67.621 68.809-67.621 117.12v5.1797c-19.551 7.8477-34.316 24.375-39.914 44.684-5.6016 20.309-1.3906 42.066 11.375 58.824 12.77 16.758 32.629 26.59 53.699 26.578 9.1602-0.011719 17.945-3.6562 24.426-10.137 6.4805-6.4766 10.125-15.262 10.137-24.426v-65.859c-0.027344-8.3672-3.0977-16.445-8.6367-22.719-5.5391-6.2773-13.172-10.324-21.473-11.391v-0.70312c0-37.746 20.137-72.621 52.824-91.492 32.684-18.871 72.957-18.871 105.64 0s52.82 53.746 52.82 91.492v0.70312c-8.3008 1.0664-15.934 5.1133-21.473 11.391-5.5391 6.2734-8.6094 14.352-8.6367 22.719v65.859c0.023438 7.7734 2.6641 15.312 7.4961 21.402 4.832 6.0898 11.578 10.371 19.145 12.156-2.5234 4.9688-6.3672 9.1445-11.113 12.07-4.7461 2.9219-10.203 4.4766-15.777 4.4961h-45.137c-5.2891 0-10.176 2.8203-12.816 7.3984-2.6445 4.582-2.6445 10.223 0 14.801 2.6406 4.5781 7.5273 7.3984 12.816 7.3984h45.137c14.113-0.019531 27.77-5.0195 38.566-14.113 10.793-9.0938 18.035-21.703 20.453-35.609 16.977-6.5039 30.605-19.59 37.797-36.285 7.1914-16.695 7.332-35.59 0.39453-52.391-6.9414-16.805-20.375-30.09-37.25-36.848zm-240.38 95.523c-0.003907 2.7422-2.2266 4.9609-4.9648 4.9648-13.199-0.003906-25.441-6.8906-32.297-18.172-6.8555-11.277-7.3359-25.316-1.2617-37.035 6.0703-11.719 17.812-19.426 30.98-20.328h3.9023c2.1562 0.54297 3.6758 2.4727 3.6992 4.6992zm215.23 4.9648c-2.7422-0.003906-4.9609-2.2227-4.9648-4.9648v-65.859c0.023437-2.2227 1.543-4.1523 3.6992-4.6953h3.8633c13.168 0.90234 24.91 8.6094 30.984 20.328 6.0703 11.719 5.5938 25.758-1.2617 37.035-6.8594 11.277-19.098 18.168-32.297 18.172z"/>
</svg>
