<svg xmlns="http://www.w3.org/2000/svg" version="1.1" viewBox="198.41 191.2 355.18 382.12">
 <g stroke-width="10">
  <path stroke="black"  stroke-width="10" d="m376 553.59c-21.805 0-39.465-17.66-39.465-39.465h-19.734c0 32.656 26.539 59.199 59.199 59.199 32.656 0 59.199-26.539 59.199-59.199h-19.734c0 21.805-17.66 39.465-39.465 39.465z"/>
  <path stroke="black"  stroke-width="10" d="m494.4 316.8c0-65.316-53.082-118.39-118.39-118.39-65.316 0-118.39 53.082-118.39 118.39v114.35l-39.465 39.465-0.003906 23.777h315.72v-23.777l-39.465-39.465zm15.688 157.86h-268.17l35.422-35.418v-122.44c0-54.363 44.301-98.664 98.664-98.664 54.363 0 98.664 44.301 98.664 98.664v122.44z"/>
  <path stroke="black"  stroke-width="10" d="m264.41 205.21-13.91-13.91c-33.645 33.445-52.094 78.043-52.094 125.5h19.734c-0.003906-42.129 16.375-81.793 46.27-111.59z"/>
  <path stroke="black" stroke-width="10" d="m553.59 316.8c0-47.457-18.449-92.051-51.996-125.6l-13.91 13.91c29.699 29.895 46.176 69.559 46.176 111.69z"/>
 </g>
</svg>