<svg xmlns="http://www.w3.org/2000/svg" version="1.1" viewBox="151.05 230.55 449.91 290.9">
 <path d="m574.83 372.04c-7.9258-6.5625-17.395-11.617-27.875-14.992 17.91-10.953 29.887-30.691 29.887-53.176 0-34.344-27.941-62.285-62.293-62.285-34.344 0-62.285 27.941-62.285 62.285 0 22.477 11.969 42.211 29.867 53.168-14.168 4.5703-26.344 12.203-35.523 22.371-10.047-9.6328-22.848-16.895-37.742-21.184 20.973-11.613 35.207-33.977 35.207-59.598 0-37.539-30.539-68.078-68.074-68.078s-68.074 30.539-68.074 68.078c0 25.625 14.234 47.988 35.207 59.598-16.211 4.668-29.945 12.859-40.344 23.801-9.3438-10.781-21.184-19.047-34.371-24.125 18.699-10.762 31.32-30.949 31.32-54.027 0-34.344-27.941-62.285-62.285-62.285-34.348 0-62.293 27.941-62.293 62.285 0 21.875 11.336 41.152 28.445 52.27-30.516 10.273-52.555 39.176-52.555 73.129v63.887c0 6.5391 5.3008 11.84 11.84 11.84h118.16v4.6055c0 6.5391 5.3008 11.84 11.84 11.84h166.23c6.5391 0 11.84-5.3008 11.84-11.84v-4.6055l118.16 0.003906c6.5391 0 11.84-5.3008 11.84-11.84v-63.891c0-22.961-9.2773-43.285-26.121-57.234zm-60.281-106.78c21.293 0 38.613 17.32 38.613 38.609s-17.32 38.609-38.613 38.609c-21.289 0-38.609-17.32-38.609-38.609 0.003906-21.289 17.32-38.609 38.609-38.609zm-138.55-11.035c24.48 0 44.395 19.918 44.395 44.398 0 24.477-19.914 44.395-44.395 44.395s-44.395-19.914-44.395-44.395c0.003906-24.48 19.918-44.398 44.395-44.398zm-138.55 11.035c21.289 0 38.609 17.32 38.609 38.609s-17.32 38.609-38.609 38.609c-21.293 0-38.613-17.32-38.613-38.609s17.32-38.609 38.613-38.609zm-27.016 216.06v-29.543c0-6.5391-5.3008-11.84-11.84-11.84-6.5391 0-11.84 5.3008-11.84 11.84v29.543h-12.027v-52.051c0-29.484 23.965-53.469 53.422-53.469h9.2812c20.508 0 39.66 10.086 51.348 26.688-5.0195 10.68-7.7305 22.766-7.7305 35.895v42.934zm236.84 16.445h-16.125v-34.27c0-6.5391-5.3008-11.84-11.84-11.84-6.5391 0-11.84 5.3008-11.84 11.84v34.27h-62.934v-34.27c0-6.5391-5.3008-11.84-11.84-11.84-6.5391 0-11.84 5.3008-11.84 11.84v34.27h-16.125l-0.003907-59.379c0-42.09 35.797-60.934 71.273-60.934s71.273 18.84 71.273 60.934zm130-16.445h-12.027v-29.543c0-6.5391-5.3008-11.84-11.84-11.84s-11.84 5.3008-11.84 11.84v29.543h-70.613v-42.934c0-14.691-3.3945-28.074-9.6172-39.645 10.781-14.477 30.16-22.941 53.234-22.941 17.852 0 33.887 5.1367 45.156 14.473 11.48 9.5039 17.547 22.992 17.547 38.996z"/>
</svg>