<svg xmlns="http://www.w3.org/2000/svg" version="1.1" viewBox="172.36 181.83 407.29 388.34">
 <path d="m376 181.83c-41.734 0-75.773 34.039-75.773 75.773 0 22.285 9.7617 42.352 25.16 56.238l-54.164 108.48c-7.293-2.3477-15.031-3.6992-23.086-3.6992-41.734 0-75.773 34.039-75.773 75.773 0 41.734 34.035 75.773 75.773 75.773 38.551 0 70.375-28.977 75.035-66.301h105.67c4.6562 37.324 36.484 66.301 75.035 66.301 41.734 0 75.773-34.039 75.773-75.773 0-41.734-34.035-75.773-75.773-75.773-8.0547 0-15.793 1.3516-23.086 3.6992l-54.172-108.48c15.398-13.887 25.16-33.953 25.16-56.238 0-41.734-34.035-75.773-75.773-75.773zm-34.926 142.96c10.457 5.4609 22.352 8.582 34.926 8.582 12.578 0 24.469-3.1211 34.926-8.582l52.832 105.52c-18.82 11.82-32.02 31.594-34.926 54.609h-105.67c-2.9062-23.016-16.109-42.789-34.926-54.609l52.836-105.52z"/>
</svg>