<svg xmlns="http://www.w3.org/2000/svg" version="1.1" viewBox="224.72 158.95 302.57 434.11">
 <g>
  <path d="m494.4 158.95h-236.79c-18.152 0-32.887 14.734-32.887 32.887v368.34c0 18.152 14.734 32.887 32.887 32.887h236.79c18.152 0 32.887-14.734 32.887-32.887l0.003906-368.34c0-18.156-14.734-32.887-32.887-32.887zm19.73 401.23c0 10.852-8.8789 19.734-19.734 19.734h-236.79c-10.852 0-19.734-8.8789-19.734-19.734l0.003906-368.34c0-10.852 8.8789-19.734 19.734-19.734h236.79c10.852 0 19.734 8.8789 19.734 19.734z"/>
  <path d="m376 277.34c21.773 0 39.465-17.695 39.465-39.465 0-21.773-17.695-39.465-39.465-39.465-21.773 0-39.465 17.695-39.465 39.465s17.695 39.465 39.465 39.465zm0-65.777c14.535 0 26.309 11.773 26.309 26.309s-11.773 26.309-26.309 26.309-26.309-11.773-26.309-26.309 11.773-26.309 26.309-26.309z"/>
  <path d="m443.88 258.2c-2.6328 2.5-2.8281 6.6445-0.32812 9.2734 15.785 16.969 24.531 39.203 24.531 62.484 0 24.996-10.062 47.688-26.309 64.328v-70.902c0-18.152-14.734-32.887-32.887-32.887l-65.777-0.003906c-18.152 0-32.887 14.734-32.887 32.887v70.906c-16.246-16.641-26.309-39.332-26.309-64.328 0-23.285 8.75-45.516 24.535-62.488 2.5-2.6328 2.3008-6.8398-0.32812-9.2734-2.6328-2.5-6.8398-2.3008-9.2734 0.32813-18.094 19.406-28.09 44.797-28.09 71.434 0 58.012 47.227 105.24 105.24 105.24s105.24-47.227 105.24-105.24c0-26.641-9.9961-52.027-28.086-71.434-2.4961-2.6914-6.6406-2.8242-9.2695-0.32422zm-94.191 159.96v-81.629c0-3.6172-2.9609-6.5781-6.5781-6.5781-3.6172 0-6.5781 2.9609-6.5781 6.5781v76.496c-4.6055-2.1719-9.0117-4.7344-13.156-7.6289l0.003906-82.02c0-10.852 8.8789-19.734 19.734-19.734h65.773c10.852 0 19.734 8.8789 19.734 19.734v82.023c-4.1445 2.8945-8.5508 5.3945-13.156 7.6289l-0.003906-76.5c0-3.6172-2.9609-6.5781-6.5781-6.5781-3.6172 0-6.5781 2.9609-6.5781 6.5781v81.625c-8.3516 2.5039-17.164 3.8828-26.309 3.8828-9.1406 0-17.957-1.3789-26.309-3.8789z"/>
  <path d="m438.49 474.66c3.6172 0 6.5781-2.9609 6.5781-6.5781 0-3.6172-2.9609-6.5781-6.5781-6.5781h-124.97c-3.6172 0-6.5781 2.9609-6.5781 6.5781 0 3.6172 2.9609 6.5781 6.5781 6.5781z"/>
  <path d="m316.8 500.97h-32.887c-3.6172 0-6.5781 2.9609-6.5781 6.5781 0 3.6172 2.9609 6.5781 6.5781 6.5781h32.887c3.6172 0 6.5781-2.9609 6.5781-6.5781 0-3.6172-2.9609-6.5781-6.5781-6.5781z"/>
  <path d="m468.09 500.97h-118.39c-3.6172 0-6.5781 2.9609-6.5781 6.5781 0 3.6172 2.9609 6.5781 6.5781 6.5781h118.39c3.6172 0 6.5781-2.9609 6.5781-6.5781 0-3.6172-2.9609-6.5781-6.5781-6.5781z"/>
  <path d="m316.8 540.44h-32.887c-3.6172 0-6.5781 2.9609-6.5781 6.5781s2.9609 6.5781 6.5781 6.5781h32.887c3.6172 0 6.5781-2.9609 6.5781-6.5781s-2.9609-6.5781-6.5781-6.5781z"/>
  <path d="m468.09 540.44h-118.39c-3.6172 0-6.5781 2.9609-6.5781 6.5781s2.9609 6.5781 6.5781 6.5781h118.39c3.6172 0 6.5781-2.9609 6.5781-6.5781s-2.9609-6.5781-6.5781-6.5781z"/>
 </g>
</svg>