<svg xmlns="http://www.w3.org/2000/svg" version="1.1" viewBox="191.01 194.71 369.98 362.59">
 <g>
  <path d="m552.58 341.52-31.531-2.8516h-0.003906c-3.4531-12.938-8.6992-25.332-15.578-36.824l20.102-23.695c3.1406-3.6992 2.8867-9.1953-0.57812-12.594l-36.488-35.734c-3.3633-3.293-8.6641-3.5352-12.312-0.56641l-24.418 19.875c-11.859-6.8359-24.598-12.02-37.859-15.402l-2.8945-30.672c-0.45312-4.7422-4.4414-8.3633-9.207-8.3477h-51.605c-4.7656-0.015625-8.7578 3.6016-9.207 8.3477l-2.8984 30.688c-13.262 3.3828-26 8.5625-37.859 15.395l-24.418-19.879c-3.6523-2.9688-8.9492-2.7266-12.312 0.5625l-36.492 35.742c-3.4648 3.3945-3.7188 8.8867-0.58203 12.586l20.105 23.695c-6.8789 11.492-12.125 23.887-15.582 36.824l-31.531 2.8516c-4.7656 0.43359-8.418 4.4258-8.418 9.2109v50.539c0 4.7852 3.6523 8.7812 8.418 9.2109l31.531 2.8516c3.457 12.941 8.7031 25.336 15.582 36.828l-20.105 23.695c-3.1367 3.6992-2.8828 9.1953 0.58203 12.59l36.488 35.734v0.003906c3.3633 3.293 8.6602 3.5352 12.312 0.5625l24.418-19.875c11.859 6.8398 24.598 12.023 37.859 15.406l2.8945 30.672c0.44922 4.7461 4.4453 8.3633 9.2109 8.3438h51.609c4.7656 0.019531 8.7578-3.6016 9.207-8.3438l2.8945-30.688c13.262-3.3828 26-8.5625 37.859-15.398l24.418 19.879c3.6523 2.9727 8.9492 2.7305 12.312-0.5625l36.488-35.738c3.4648-3.3945 3.7188-8.8906 0.57812-12.594l-20.105-23.695 0.003906 0.003906c6.8789-11.492 12.125-23.887 15.578-36.828l31.531-2.8516h0.003906c4.7656-0.42969 8.4141-4.4258 8.4141-9.2109v-50.535c0-4.7852-3.6484-8.7773-8.4141-9.2109zm-10.082 51.301-29.715 2.6836-0.003906-0.003906c-4.0273 0.36719-7.3516 3.3047-8.207 7.2617-3.3359 15.379-9.5273 29.996-18.258 43.094-2.2773 3.4336-2.0117 7.957 0.65625 11.102l18.922 22.301-24.434 23.926-23.07-18.777c-3.0898-2.5156-7.4414-2.7695-10.805-0.62891-13.5 8.6094-28.461 14.688-44.141 17.934-3.9688 0.80859-6.9453 4.1172-7.3281 8.1523l-2.7305 28.93h-34.766l-2.7305-28.926h0.003906c-0.38281-4.0391-3.3555-7.3516-7.332-8.168-15.68-3.2461-30.637-9.3203-44.137-17.926-3.3633-2.1406-7.7188-1.8828-10.809 0.63281l-23.07 18.777-24.43-23.93 18.922-22.301c2.6641-3.1406 2.9336-7.668 0.65234-11.098-8.7266-13.098-14.918-27.715-18.258-43.094-0.85547-3.9531-4.1758-6.8906-8.207-7.2578l-29.715-2.6836v-33.637l29.715-2.6836c4.0312-0.36328 7.3555-3.3047 8.207-7.2578 3.3398-15.379 9.5312-30 18.258-43.094 2.2812-3.4336 2.0117-7.9609-0.65234-11.102l-18.922-22.301 24.434-23.93 23.07 18.777h-0.003907c3.0938 2.5156 7.4453 2.7695 10.809 0.62891 13.5-8.6094 28.457-14.688 44.137-17.934 3.9727-0.80859 6.9492-4.1172 7.332-8.1523l2.7266-28.93h34.766l2.7305 28.926v0.003907c0.38281 4.0352 3.3555 7.3516 7.3281 8.168 15.68 3.2461 30.637 9.3203 44.141 17.926 3.3633 2.1367 7.7148 1.8828 10.805-0.63281l23.07-18.777 24.434 23.93-18.922 22.301c-2.668 3.1406-2.9336 7.6641-0.65625 11.098 8.7305 13.098 14.922 27.715 18.258 43.094 0.85547 3.9531 4.1797 6.8906 8.207 7.2539l29.715 2.6836z"/>
  <path d="m376 323.23c-29.598 0-53.684 23.672-53.684 52.766 0.003906 29.098 24.086 52.77 53.684 52.77 29.602 0 53.684-23.672 53.684-52.77 0-29.094-24.082-52.766-53.684-52.766zm0 87.035c-19.402 0-35.184-15.371-35.184-34.266 0-18.898 15.785-34.27 35.184-34.27 19.402 0 35.184 15.371 35.184 34.266 0 18.898-15.781 34.27-35.184 34.27z"/>
 </g>
</svg>