<svg xmlns="http://www.w3.org/2000/svg" version="1.1" viewBox="139.2 183 473.59 386">
 <defs>
  <clipPath id="a">
   <path d="m139.21 183h473.58v386h-473.58z"/>
  </clipPath>
 </defs>
 <g clip-path="url(#a)">
  <path d="m568.39 568.39h-384.79c-11.77-0.015625-23.059-4.6953-31.379-13.02-8.3242-8.3242-13.008-19.609-13.02-31.379v-295.99c0.011718-11.773 4.6953-23.059 13.02-31.379 8.3203-8.3242 19.609-13.008 31.379-13.02h384.79c11.77 0.011719 23.055 4.6953 31.379 13.02 8.3242 8.3203 13.004 19.605 13.02 31.379v295.99c-0.015625 11.77-4.6953 23.055-13.02 31.379-8.3242 8.3242-19.609 13.004-31.379 13.02zm-384.79-355.19c-3.9258 0.003907-7.6875 1.5664-10.461 4.3398-2.7734 2.7734-4.3359 6.5352-4.3398 10.461v295.99c0.003906 3.9219 1.5664 7.6875 4.3398 10.461 2.7734 2.7734 6.5352 4.3359 10.461 4.3359h384.79c3.9219 0 7.6836-1.5625 10.461-4.3359 2.7734-2.7734 4.3359-6.5391 4.3359-10.461v-295.99c0-3.9258-1.5625-7.6875-4.3359-10.461-2.7773-2.7734-6.5391-4.3359-10.461-4.3398z"/>
 </g>
 <path d="m287.2 568.39c-3.9219 0-7.6875-1.5586-10.465-4.3359-2.7734-2.7734-4.332-6.5391-4.332-10.465v-355.18c0-5.2891 2.8203-10.176 7.3984-12.816 4.5781-2.6445 10.223-2.6445 14.801 0 4.5781 2.6406 7.3984 7.5273 7.3984 12.816v355.18c0 3.9258-1.5586 7.6914-4.3359 10.465-2.7734 2.7773-6.5391 4.3359-10.465 4.3359z"/>
 <path d="m583.19 331.6h-414.38c-5.2852 0-10.172-2.8203-12.816-7.3984-2.6445-4.5781-2.6445-10.219 0-14.801 2.6445-4.5781 7.5312-7.3984 12.816-7.3984h414.38c5.2891 0 10.176 2.8203 12.816 7.3984 2.6445 4.582 2.6445 10.223 0 14.801-2.6406 4.5781-7.5273 7.3984-12.816 7.3984z"/>
 <path d="m583.19 450h-414.38c-5.2852 0-10.172-2.8242-12.816-7.4023-2.6445-4.5781-2.6445-10.219 0-14.797 2.6445-4.582 7.5312-7.4023 12.816-7.4023h414.38c5.2891 0 10.176 2.8203 12.816 7.4023 2.6445 4.5781 2.6445 10.219 0 14.797-2.6406 4.5781-7.5273 7.4023-12.816 7.4023z"/>
 <path d="m213.41 287.01c-3.9258 0.007813-7.6875-1.5508-10.465-4.3281l-14.613-14.605 0.003907 0.003906c-3.7422-3.7383-5.2031-9.1914-3.8359-14.297 1.3672-5.1094 5.3555-9.1016 10.461-10.473 5.1094-1.3711 10.562 0.089844 14.301 3.8281l4.1445 4.1445 18.938-18.938c3.7578-3.6289 9.1523-5.0078 14.195-3.6289 5.0391 1.3828 8.9766 5.3203 10.359 10.359 1.3828 5.043 0.003906 10.438-3.6289 14.195l-29.395 29.402c-2.7734 2.7812-6.5391 4.3438-10.465 4.3359z"/>
 <path d="m213.41 405.41c-3.9258 0.003906-7.6875-1.5547-10.465-4.332l-14.613-14.605 0.003907 0.003906c-3.7422-3.7383-5.2031-9.1875-3.8359-14.297s5.3555-9.1016 10.461-10.473c5.1094-1.3711 10.562 0.089844 14.301 3.8281l4.1445 4.1445 18.934-18.941v-0.003906c3.7578-3.6289 9.1523-5.0078 14.195-3.625 5.0391 1.3789 8.9766 5.3164 10.359 10.359 1.3789 5.0391 0 10.434-3.6289 14.191l-29.391 29.414c-2.7734 2.7773-6.5391 4.3398-10.465 4.3359z"/>
 <path d="m538.79 272.41h-192.39c-5.2852 0-10.172-2.8203-12.816-7.3984-2.6445-4.582-2.6445-10.223 0-14.801 2.6445-4.5781 7.5312-7.3984 12.816-7.3984h192.39c5.2891 0 10.176 2.8203 12.82 7.3984 2.6406 4.5781 2.6406 10.219 0 14.801-2.6445 4.5781-7.5312 7.3984-12.82 7.3984z"/>
 <path d="m538.79 390.8h-192.39c-5.2852 0-10.172-2.8203-12.816-7.3984-2.6445-4.582-2.6445-10.223 0-14.801 2.6445-4.5781 7.5312-7.3984 12.816-7.3984h192.39c5.2891 0 10.176 2.8203 12.82 7.3984 2.6406 4.5781 2.6406 10.219 0 14.801-2.6445 4.5781-7.5312 7.3984-12.82 7.3984z"/>
 <path d="m538.79 509.2h-192.39c-5.2852 0-10.172-2.8203-12.816-7.3984-2.6445-4.5781-2.6445-10.223 0-14.801 2.6445-4.5781 7.5312-7.3984 12.816-7.3984h192.39c5.2891 0 10.176 2.8203 12.82 7.3984 2.6406 4.5781 2.6406 10.223 0 14.801-2.6445 4.5781-7.5312 7.3984-12.82 7.3984z"/>
</svg>